<?xml version="1.0" encoding="UTF-8" standalone="no"?>
<!DOCTYPE svg PUBLIC "-//W3C//DTD SVG 1.1//EN" "http://www.w3.org/Graphics/SVG/1.1/DTD/svg11.dtd">
<svg width="100%" height="100%" viewBox="0 0 448 512" version="1.1" xmlns="http://www.w3.org/2000/svg" xml:space="preserve" style="fill-rule:evenodd;clip-rule:evenodd;stroke-linejoin:round;stroke-miterlimit:2;">
    <g>
        <path d="M176,448C167.223,448 160,455.223 160,464L160,512L192,512L192,464C192,455.223 184.777,448 176,448ZM272,448C263.223,448 256,455.223 256,464C256,472.777 263.223,480 272,480C280.777,480 288,472.777 288,464C288,455.223 280.777,448 272,448Z" style="fill-opacity:0.4;fill-rule:nonzero;"/>
        <path d="M296,96L152,96C125.5,96 104,113.9 104,136L104,160C104,212.664 147.336,256 200,256L248,256C300.664,256 344,212.664 344,160L344,136C344,113.9 322.5,96 296,96ZM192,512L160,512L192,512Z" style="fill-opacity:0;fill-rule:nonzero;"/>
        <path d="M327.6,321.4C264.673,362.125 183.327,362.125 120.4,321.4C52.9,328.5 0,385 0,454.4L0,464C0,490.332 21.668,512 48,512L128,512L128,448C128,430.445 142.445,416 160,416L288,416C305.555,416 320,430.445 320,448L320,512L400,512C426.332,512 448,490.332 448,464L448,454.4C448,385 395.1,328.5 327.6,321.4ZM64,224L77.5,224C102.832,282.191 160.535,320.004 224,320.004C287.465,320.004 345.168,282.191 370.5,224L384,224C392.777,224 400,216.777 400,208L400,112C400,103.223 392.777,96 384,96L370.5,96C345.168,37.809 287.465,-0.004 224,-0.004C160.535,-0.004 102.832,37.809 77.5,96L64,96C55.223,96 48,103.223 48,112L48,208C48,216.777 55.223,224 64,224ZM104,136C104,113.9 125.5,96 152,96L296,96C322.5,96 344,113.9 344,136L344,160C344,212.664 300.664,256 248,256L200,256C147.336,256 104,212.664 104,160L104,136Z" style="fill-rule:nonzero;stroke:black;stroke-width:1px;"/>
        <g transform="matrix(0.26412,0,0,0.26412,226.654,172.933)">
            <g opacity="0.4">
                <g transform="matrix(1,0,0,1,-320,-256)">
                    <clipPath id="_clip1">
                        <rect x="0" y="0" width="640" height="512"/>
                    </clipPath>
                    <g clip-path="url(#_clip1)">
                        <path d="M624,232L480,232C470.7,232 462.24,237.37 458.28,245.79L422.5,321.83L343.22,17.94C340.47,7.36 330.91,0 320,0C319.81,0 319.59,0 319.38,0.02C308.26,0.3 298.76,8.22 296.5,19.14L220.66,385.66L183.13,249.63C180.26,239.22 170.78,232.01 159.98,232.01L16,232.01C7.16,232.01 0,239.17 0,248.01L0,264.01C0,272.85 7.16,280.01 16,280.01L141.72,280.01L200.88,494.39C203.736,504.763 213.241,512.003 224,512C224.25,512 224.53,512 224.78,511.98C235.87,511.62 245.25,503.71 247.5,492.86L322.69,129.42L392.78,398.06C395.31,407.83 403.72,414.97 413.78,415.89C424.28,417.03 433.4,411.36 437.72,402.22L495.22,280L624,280C632.84,280 640,272.84 640,264L640,248C640,239.16 632.84,232 624,232Z" style="fill-rule:nonzero;"/>
                    </g>
                </g>
            </g>
        </g>
    </g>
</svg>
